<?xml version="1.0" encoding="utf-8"?>
<!-- Generator: Adobe Illustrator 16.0.0, SVG Export Plug-In . SVG Version: 6.00 Build 0)  -->
<!DOCTYPE svg PUBLIC "-//W3C//DTD SVG 1.1//EN" "http://www.w3.org/Graphics/SVG/1.1/DTD/svg11.dtd">
<svg version="1.1" id="Menu" xmlns="http://www.w3.org/2000/svg" xmlns:xlink="http://www.w3.org/1999/xlink" x="0px" y="0px"
	 width="1900px" height="1900px" viewBox="0 0 1900 1900" enable-background="new 0 0 1900 1900" xml:space="preserve">
<path fill="#FBE00B" d="M1558,855H342c-52.44,0-57,42.465-57,95s4.56,95,57,95h1216c52.439,0,57-42.465,57-95S1610.439,855,1558,855
	z M1558,1235H342c-52.44,0-57,42.465-57,95s4.56,95,57,95h1216c52.439,0,57-42.465,57-95S1610.439,1235,1558,1235z M342,665h1216
	c52.439,0,57-42.465,57-95s-4.561-95-57-95H342c-52.44,0-57,42.465-57,95S289.56,665,342,665z"/>
</svg>
